<svg width="45" height="37" viewBox="0 0 45 37" fill="none" xmlns="http://www.w3.org/2000/svg">
<path d="M0.943359 19.9664L12.5976 8.58887L27.5122 21.8473" stroke="#16A1DC" stroke-width="1.4" stroke-linecap="round" stroke-linejoin="round"/>
<path d="M13.9717 36.0793L31.9852 18.4934L44.057 30.2787" stroke="#16A1DC" stroke-width="1.4" stroke-linecap="round" stroke-linejoin="round"/>
<path d="M34.3701 13.4426C36.528 13.4426 38.2773 11.7348 38.2773 9.62815C38.2773 7.5215 36.528 5.81372 34.3701 5.81372C32.2122 5.81372 30.4629 7.5215 30.4629 9.62815C30.4629 11.7348 32.2122 13.4426 34.3701 13.4426Z" stroke="#16A1DC" stroke-width="1.4" stroke-linecap="round" stroke-linejoin="round"/>
<path d="M42.1709 0.920654H2.82959C1.78785 0.920654 0.943359 1.7451 0.943359 2.7621V34.2378C0.943359 35.2548 1.78785 36.0792 2.82959 36.0792H42.1709C43.2126 36.0792 44.0571 35.2548 44.0571 34.2378V2.7621C44.0571 1.7451 43.2126 0.920654 42.1709 0.920654Z" stroke="#16A1DC" stroke-width="1.4" stroke-linecap="round" stroke-linejoin="round"/>
</svg>
