<svg width="19" height="19" viewBox="0 0 19 19" fill="none" xmlns="http://www.w3.org/2000/svg">
<path d="M9.27 18.54C14.3897 18.54 18.54 14.3897 18.54 9.27C18.54 4.15032 14.3897 0 9.27 0C4.15032 0 0 4.15032 0 9.27C0 14.3897 4.15032 18.54 9.27 18.54Z" fill="#16A1DC"/>
<path d="M8.22913 4.17018L12.9391 8.87018C13.0442 8.97682 13.1031 9.1205 13.1031 9.27018C13.1031 9.41986 13.0442 9.56354 12.9391 9.67018L8.22913 14.3802C8.15153 14.4697 8.04797 14.5327 7.93286 14.5607C7.81775 14.5886 7.6968 14.5799 7.58682 14.536C7.47685 14.492 7.38331 14.4148 7.3192 14.3152C7.2551 14.2156 7.22362 14.0985 7.22913 13.9802V4.57018C7.22362 4.45186 7.2551 4.33476 7.3192 4.23516C7.38331 4.13555 7.47685 4.05839 7.58682 4.0144C7.6968 3.97041 7.81775 3.96177 7.93286 3.98969C8.04797 4.01761 8.15153 4.08069 8.22913 4.17018Z" fill="white" stroke="white" stroke-width="0.9" stroke-linecap="round" stroke-linejoin="round"/>
</svg>
