<?xml version="1.0" encoding="utf-8"?>
<!-- Generator: Adobe Illustrator 25.4.1, SVG Export Plug-In . SVG Version: 6.00 Build 0)  -->
<svg version="1.1" id="Layer_1" xmlns="http://www.w3.org/2000/svg" xmlns:xlink="http://www.w3.org/1999/xlink" x="0px" y="0px"
	 viewBox="0 0 42 41" style="enable-background:new 0 0 42 41;" xml:space="preserve">
<style type="text/css">
	.st0{fill:#16A1DC;}
	.st1{fill:none;stroke:#FFFFFF;stroke-width:1.1846;stroke-linecap:round;stroke-linejoin:round;}
</style>
<path class="st0" d="M21,35.9c8.5,0,15.4-6.9,15.4-15.4C36.4,12,29.5,5.1,21,5.1C12.5,5.1,5.6,12,5.6,20.5C5.6,29,12.5,35.9,21,35.9
	z"/>
<path class="st1" d="M29.7,11.4c0.1,0,0.3,0,0.4,0.1s0.3,0.1,0.4,0.2c0.1,0.1,0.2,0.2,0.2,0.4c0.1,0.1,0.1,0.3,0.1,0.4v13.2
	c0,0.2,0,0.3-0.1,0.4c-0.1,0.1-0.1,0.3-0.2,0.4c-0.1,0.1-0.2,0.2-0.4,0.2C30,26.9,29.9,27,29.7,27h-1.6v4.2c-0.5,0-1.1-0.1-1.6-0.3
	s-1-0.5-1.3-0.9c-0.4-0.4-0.7-0.9-0.9-1.4C24.1,28.1,24,27.5,24,27H12.3c-0.3,0-0.6-0.1-0.8-0.3c-0.2-0.2-0.3-0.5-0.3-0.8V12.6
	c0-0.3,0.1-0.6,0.3-0.8c0.2-0.2,0.5-0.3,0.8-0.3H29.7z"/>
<path class="st1" d="M14.3,17.7h14.2"/>
<path class="st1" d="M14.3,15.4h14.2"/>
<path class="st1" d="M14.3,20.1h14.2"/>
<path class="st1" d="M14.3,22.5h14.2"/>
</svg>
