<?xml version="1.0" encoding="utf-8"?>
<!-- Generator: Adobe Illustrator 25.4.1, SVG Export Plug-In . SVG Version: 6.00 Build 0)  -->
<svg version="1.1" id="Layer_1" xmlns="http://www.w3.org/2000/svg" xmlns:xlink="http://www.w3.org/1999/xlink" x="0px" y="0px"
	 viewBox="0 0 42 41" style="enable-background:new 0 0 42 41;" xml:space="preserve">
<style type="text/css">
	.st0{fill:none;stroke:#16A1DC;stroke-width:1.18;stroke-linecap:round;stroke-linejoin:round;}
</style>
<path class="st0" d="M33,5.2H9c-1.9,0-3.4,1.5-3.4,3.4v23.9c0,1.9,1.5,3.4,3.4,3.4H33c1.9,0,3.4-1.5,3.4-3.4V8.5
	C36.3,6.7,34.8,5.2,33,5.2z"/>
<path class="st0" d="M28.7,19v-2.4c0-0.7-0.1-1.4-0.4-2.1c-0.3-0.7-0.7-1.3-1.2-1.8c-0.5-0.5-1.1-0.9-1.8-1.2
	c-0.7-0.3-1.4-0.4-2.1-0.4h-1.7c-0.7,0-1.4,0.1-2.1,0.4c-0.7,0.3-1.2,0.7-1.7,1.2c-0.5,0.5-0.9,1.1-1.1,1.8s-0.4,1.4-0.4,2.1v19.3
	h5.4v-9.7h3.5v-3.5h-3.5v-5.6c0-0.1,0-0.2,0-0.3c0-0.1,0.1-0.2,0.2-0.3c0.1-0.1,0.2-0.2,0.3-0.2c0.1,0,0.2-0.1,0.3-0.1
	s0.2,0,0.3,0.1c0.1,0,0.2,0.1,0.3,0.2c0.1,0.1,0.1,0.2,0.2,0.3c0,0.1,0,0.2,0,0.3v2L28.7,19z"/>
</svg>
