<?xml version="1.0" encoding="utf-8"?>
<!-- Generator: Adobe Illustrator 25.4.1, SVG Export Plug-In . SVG Version: 6.00 Build 0)  -->
<svg version="1.1" id="Layer_1" xmlns="http://www.w3.org/2000/svg" xmlns:xlink="http://www.w3.org/1999/xlink" x="0px" y="0px"
	 viewBox="0 0 23 20" style="enable-background:new 0 0 23 20;" xml:space="preserve">
<style type="text/css">
	.st0{fill:#FFFFFF;}
</style>
<g>
	<path class="st0" d="M15.7,19.5l-5.1-6.8l-5.9,6.8h-3l7.5-8.6l-8-10.4h6.5l4.7,6.2l5.5-6.2h3l-7,8.1l8.3,11
		C22.1,19.5,15.7,19.5,15.7,19.5z M16.6,17.7h2L6.8,2.2H4.7L16.6,17.7z"/>
	<path class="st0" d="M20.7,0.6l-6.9,7.9l-0.1,0.1l0.1,0.1l8.2,10.8h-6.1l-5.1-6.7l-0.1-0.1l-0.1,0.2l-5.9,6.6H1.8L9.1,11l0.1-0.1
		l-0.1-0.1L1.3,0.6h6.3l4.6,6l0.1,0.2l0.1-0.2l5.4-6H20.7 M16.6,17.9h0.1h1.8h0.3l-0.2-0.3L6.9,2.1L6.8,2.1H6.7H4.9H4.5l0.2,0.3
		l11.8,15.4L16.6,17.9 M21,0.4h-3.3l-5.4,6.1L7.7,0.4H1l8,10.5l-7.6,8.7h3.3l5.9-6.7l5.1,6.7h6.6L14,8.5L21,0.4L21,0.4z M16.6,17.6
		L4.9,2.3h1.9l11.6,15.4H16.6L16.6,17.6z"/>
</g>
</svg>
