<?xml version="1.0" encoding="utf-8"?>
<!-- Generator: Adobe Illustrator 25.4.1, SVG Export Plug-In . SVG Version: 6.00 Build 0)  -->
<svg version="1.1" id="Layer_1" xmlns="http://www.w3.org/2000/svg" xmlns:xlink="http://www.w3.org/1999/xlink" x="0px" y="0px"
	 viewBox="0 0 42 41" style="enable-background:new 0 0 42 41;" xml:space="preserve">
<style type="text/css">
	.st0{fill:#16A1DC;}
	.st1{fill:#FFFFFF;}
</style>
<g>
	<path class="st0" d="M28.1,35.5l-8.1-10.6l-9.3,10.6H5.8l11.8-13.6L5.1,5.5h10.3l7.4,9.7l8.6-9.7h4.8L25,18.2l13.1,17.3H28.1z
		 M29.5,32.7h3.2L14,8.2h-3.4L29.5,32.7z"/>
	<path class="st1" d="M35.9,5.6L25,18l-0.1,0.2l0.1,0.2l12.9,17h-9.7l-8-10.5l-0.2-0.2l-0.2,0.2l-9.2,10.5H6.1l11.6-13.3l0.1-0.2
		l-0.1-0.2L5.4,5.6h10l7.2,9.6l0.2,0.2l0.2-0.2l8.5-9.6H35.9 M29.4,32.9h0.1h2.8h0.5l-0.3-0.4L14.2,8.1L14.1,8H14h-3.1h-0.5l0.3,0.4
		L29.4,32.9L29.4,32.9 M36.4,5.4h-5.1L22.8,15l-7.3-9.7H4.9l12.6,16.5L5.5,35.6h5.1L19.9,25L28,35.6h10.3L25.2,18.2L36.4,5.4
		L36.4,5.4z M29.5,32.6L10.9,8.3H14l18.4,24.3H29.5L29.5,32.6z"/>
</g>
</svg>
