<?xml version="1.0" encoding="utf-8"?>
<!-- Generator: Adobe Illustrator 25.4.1, SVG Export Plug-In . SVG Version: 6.00 Build 0)  -->
<svg version="1.1" id="Flat" xmlns="http://www.w3.org/2000/svg" xmlns:xlink="http://www.w3.org/1999/xlink" x="0px" y="0px"
	 viewBox="0 0 800 800" style="enable-background:new 0 0 800 800;" xml:space="preserve">
<style type="text/css">
	.st0{fill:#FFFFFF;}
</style>
<path class="st0" d="M714.5,108.6c-10.5-9.1-25.2-11.6-38.2-6.5L99.6,328.7c-19.3,7.6-28.8,29.3-21.2,48.6
	c4.7,11.9,15,20.6,27.5,23.1l156.5,31.3V625c-0.2,15.2,9,29,23.1,34.6c4.6,1.9,9.6,2.9,14.6,3c9.9,0,19.4-4,26.3-11.1l89.4-89.4
	l131.9,116c6.8,6,15.6,9.4,24.7,9.4c4,0,7.9-0.6,11.6-1.8c12.6-4,22.1-14.4,25-27.3l117.5-512.9
	C729.7,131.9,725.1,117.7,714.5,108.6z M100.9,364.7c-0.6-5.6,2.6-10.8,7.9-12.7l528.7-207.7L272.1,408.1l-161.2-32.2
	C105.3,374.9,101.2,370.3,100.9,364.7z M308.8,633.8c-4.9,4.9-12.8,4.9-17.7,0c-2.3-2.3-3.7-5.5-3.7-8.8V449.1l109.6,96.4
	L308.8,633.8z M702.2,139.9L584.7,652.8c-1.5,6.7-8.2,10.9-15,9.4c-2-0.5-3.9-1.4-5.5-2.8L295,422.4l405.2-292.6
	C702.4,132.7,703.1,136.4,702.2,139.9z"/>
</svg>
