<?xml version="1.0" encoding="utf-8"?>
<!-- Generator: Adobe Illustrator 25.4.1, SVG Export Plug-In . SVG Version: 6.00 Build 0)  -->
<svg version="1.1" id="Layer_1" xmlns="http://www.w3.org/2000/svg" xmlns:xlink="http://www.w3.org/1999/xlink" x="0px" y="0px"
	 viewBox="0 0 23 20" style="enable-background:new 0 0 23 20;" xml:space="preserve">
<style type="text/css">
	.st0{fill:#FFFFFF;}
</style>
<g>
	<path class="st0" d="M15.5,19.4l-5.1-6.7l-5.9,6.7h-3L9,10.9L1.1,0.5h6.4l4.6,6.1l5.4-6.1h3l-7,8l8.2,10.9
		C21.8,19.4,15.5,19.4,15.5,19.4z M16.4,17.7h2L6.7,2.2H4.5L16.4,17.7z"/>
	<path class="st0" d="M20.4,0.6l-6.9,7.8l-0.1,0.1l0.1,0.1l8.1,10.7h-6.1l-5.1-6.6l-0.1-0.1l-0.1,0.2l-5.8,6.6H1.7L9,11l0.1-0.1
		L9,10.8L1.2,0.6h6.2l4.6,6l0.1,0.2l0.1-0.2l5.4-6L20.4,0.6 M16.3,17.8h0.1h1.8h0.3l-0.2-0.3L6.8,2.2L6.7,2.1H6.6H4.7H4.4l0.2,0.3
		L16.3,17.8L16.3,17.8 M18.9,2.2h-2.6l-4.4,5l-3.8-5H2.6l6.5,8.5l-6.2,7.1h2.6l4.8-5.5l4.2,5.5h5.4l-6.7-9L18.9,2.2L18.9,2.2z
		 M16.4,17.6L4.7,2.3h1.9l11.6,15.3H16.4L16.4,17.6z"/>
</g>
</svg>
